<?xml version="1.0" encoding="UTF-8" standalone="no"?>
<!-- Created with Inkscape (http://www.inkscape.org/) -->
<svg
   xmlns:dc="http://purl.org/dc/elements/1.1/"
   xmlns:cc="http://web.resource.org/cc/"
   xmlns:rdf="http://www.w3.org/1999/02/22-rdf-syntax-ns#"
   xmlns:svg="http://www.w3.org/2000/svg"
   xmlns="http://www.w3.org/2000/svg"
   xmlns:sodipodi="http://sodipodi.sourceforge.net/DTD/sodipodi-0.dtd"
   xmlns:inkscape="http://www.inkscape.org/namespaces/inkscape"
   width="545.84644"
   height="196.54724"
   id="svg10140"
   sodipodi:version="0.32"
   inkscape:version="0.44.1"
   version="1.0"
   sodipodi:docbase="F:\Logos\Computer, Electronics"
   sodipodi:docname="Kobil-Logo.svg">
  <defs
     id="defs10142" />
  <sodipodi:namedview
     id="base"
     pagecolor="#ffffff"
     bordercolor="#666666"
     borderopacity="1.0"
     inkscape:pageopacity="0.0"
     inkscape:pageshadow="2"
     inkscape:zoom="0.35919193"
     inkscape:cx="372.04724"
     inkscape:cy="87.031047"
     inkscape:document-units="px"
     inkscape:current-layer="layer1"
     inkscape:window-width="925"
     inkscape:window-height="573"
     inkscape:window-x="50"
     inkscape:window-y="345"
     width="154.05mm"
     height="55.47mm"
     units="mm" />
  <metadata
     id="metadata10145">
    <rdf:RDF>
      <cc:Work
         rdf:about="">
        <dc:format>image/svg+xml</dc:format>
        <dc:type
           rdf:resource="http://purl.org/dc/dcmitype/StillImage" />
      </cc:Work>
    </rdf:RDF>
  </metadata>
  <g
     inkscape:label="Ebene 1"
     inkscape:groupmode="layer"
     id="layer1"
     transform="translate(-42.28398,-712.1421)">
    <g
       id="g26289"
       transform="translate(1.771915,1.776921)">
      <path
         style="font-size:5.56010008px;letter-spacing:0;word-spacing:0;fill:black;fill-rule:nonzero;stroke:none;stroke-width:0.089;stroke-linecap:butt;stroke-linejoin:miter;stroke-miterlimit:4;stroke-dasharray:none;font-family:fnt0, &quot;FranklinGothic&quot;, Arial"
         d="M 134.52344,759.73555 L 106.68787,759.73555 L 74.485923,802.52594 L 82.563702,759.73555 L 60.731876,759.73555 L 42.283976,856.45051 L 64.115802,856.45051 L 72.739372,811.04031 L 89.004086,856.45051 L 116.18471,856.45051 L 94.680365,808.09307 L 134.52344,759.73555"
         class="ps00"
         id="path9389" />
      <path
         style="font-size:5.56010008px;letter-spacing:0;word-spacing:0;fill:black;fill-rule:evenodd;stroke:none;stroke-width:0.089;stroke-linecap:butt;stroke-linejoin:miter;stroke-miterlimit:4;stroke-dasharray:none;font-family:fnt0, &quot;FranklinGothic&quot;, Arial"
         d="M 194.34265,796.30391 C 194.34265,818.2449 181.6802,837.89354 163.77811,837.89354 C 152.97135,837.89354 147.40423,831.23484 147.40423,819.00901 C 147.40423,798.81447 158.75678,778.29262 177.64131,778.29262 C 189.21218,778.29262 194.34265,785.71543 194.34265,796.30391 z M 217.59356,793.79323 C 217.59356,770.97892 205.25857,757.87986 181.24357,757.87986 C 148.71414,757.87986 123.82585,788.11689 123.82585,822.82958 C 123.82585,844.66134 135.28756,858.30629 160.39417,858.30629 C 191.72283,858.30629 217.59356,831.12561 217.59356,793.79323"
         class="ps07 ps10 ps20"
         id="path9393" />
      <path
         style="font-size:5.56010008px;letter-spacing:0;word-spacing:0;fill:black;fill-rule:evenodd;stroke:none;stroke-width:0.047;stroke-linecap:butt;stroke-linejoin:miter;stroke-miterlimit:4;stroke-dasharray:none;font-family:fnt0, &quot;FranklinGothic&quot;, Arial"
         d="M 271.19069,823.92114 C 271.19069,831.56228 264.75031,838.54844 252.63363,838.54844 C 249.90466,838.54844 246.62988,838.43931 244.88333,838.11175 L 249.03138,815.40667 C 251.1054,815.18844 255.1443,815.18844 258.41907,815.18844 C 266.93349,815.18844 271.19069,818.2449 271.19069,823.92114 z M 277.41276,784.62386 C 277.41276,793.13823 269.44414,798.81447 257.98243,798.81447 C 256.01757,798.81447 254.27102,798.81447 252.41532,798.59626 L 256.56336,777.41929 C 259.29233,777.31016 262.34879,777.09183 265.95106,777.09183 C 274.13799,777.09183 277.41276,779.82085 277.41276,784.62386 z M 301.20946,779.38419 C 301.20946,765.19356 289.74775,759.18976 271.51816,759.18976 C 261.0389,759.18976 246.62988,759.5172 237.89714,759.95388 L 219.44926,856.45051 C 233.31247,856.45051 243.79175,856.77805 250.34129,856.77805 C 277.52191,856.77805 294.6599,841.05911 294.6599,822.50203 C 294.6599,814.53344 290.51185,807.32897 283.30735,805.36407 L 283.30735,805.14573 C 293.45916,800.45193 301.20946,792.15579 301.20946,779.38419"
         class="ps07 ps13 ps20"
         id="path9397" />
      <path
         style="font-size:5.56010008px;letter-spacing:0;word-spacing:0;fill:black;fill-rule:nonzero;stroke:none;stroke-width:0.047;stroke-linecap:butt;stroke-linejoin:miter;stroke-miterlimit:4;stroke-dasharray:none;font-family:fnt0, &quot;FranklinGothic&quot;, Arial"
         d="M 343.23572,759.73555 L 321.40389,759.73555 L 302.956,856.45051 L 324.78782,856.45051 L 343.23572,759.73555"
         class="ps03 ps13 ps20"
         id="path9401" />
      <path
         style="font-size:5.56010008px;letter-spacing:0;word-spacing:0;fill:black;fill-rule:nonzero;stroke:none;stroke-width:0.047;stroke-linecap:butt;stroke-linejoin:miter;stroke-miterlimit:4;stroke-dasharray:none;font-family:fnt0, &quot;FranklinGothic&quot;, Arial"
         d="M 398.03361,836.69275 L 369.32476,836.69275 L 383.95207,759.73555 L 362.12025,759.73555 L 343.67236,856.45051 L 394.3222,856.45051 L 398.03361,836.69275"
         class="ps03 ps13 ps20"
         id="path9405" />
      <path
         style="font-size:5.56010008px;letter-spacing:0;word-spacing:0;fill:#00589d;fill-rule:nonzero;stroke:none;stroke-width:0.047;stroke-linecap:butt;stroke-linejoin:miter;stroke-miterlimit:4;stroke-dasharray:none;font-family:fnt0, &quot;FranklinGothic&quot;, Arial"
         d="M 493.0021,759.73555 L 471.17023,759.73555 L 452.83149,856.45051 L 474.66336,856.45051 L 493.0021,759.73555"
         class="ps0219 ps13 ps20"
         id="path9409" />
      <path
         style="font-size:5.56010008px;letter-spacing:0;word-spacing:0;fill:#00589c;fill-rule:nonzero;stroke:none;stroke-width:0.047;stroke-linecap:butt;stroke-linejoin:miter;stroke-miterlimit:4;stroke-dasharray:none;font-family:fnt0, &quot;FranklinGothic&quot;, Arial"
         d="M 538.52141,736.37544 L 516.90787,736.37544 L 485.36096,905.13549 L 506.53781,905.13549 L 538.52141,736.37544"
         class="ps0221"
         id="path9419" />
      <path
         style="font-size:5.56010008px;letter-spacing:0;word-spacing:0;fill:#00589c;fill-rule:nonzero;stroke:none;stroke-width:0.047;stroke-linecap:butt;stroke-linejoin:miter;stroke-miterlimit:4;stroke-dasharray:none;font-family:fnt0, &quot;FranklinGothic&quot;, Arial"
         d="M 584.58659,712.14211 L 562.75472,712.14211 L 544.30688,808.8572 L 566.13863,808.8572 L 584.58659,712.14211"
         class="ps0221"
         id="path9423" />
    </g>
  </g>
</svg>
